<svg width="37.879in" height="13.891in" viewBox="0 0 37.879 13.891" xmlns="http://www.w3.org/2000/svg" version="1.1" preserveAspectRatio="xMidYMid meet"><g id="svgGroup" stroke-linecap="round" fill-rule="evenodd" font-size="9pt" stroke="#000" stroke-width="0.25mm" fill="none" style="stroke:#000;stroke-width:0.25mm;fill:none"><path d="M 1.908 13.889 L 1.908 13.655 L 3.553 13.655 L 3.553 13.889 L 3.555 13.891 L 5.21 13.891 L 5.213 13.889 L 5.213 13.655 L 6.857 13.655 L 6.857 13.889 L 6.859 13.891 L 8.514 13.891 L 8.517 13.889 L 8.517 13.655 L 10.16 13.655 L 10.16 13.889 L 10.163 13.891 L 11.818 13.891 L 11.821 13.889 L 11.821 13.655 L 13.465 13.655 L 13.465 13.889 L 13.467 13.891 L 15.371 13.891 L 15.373 13.889 L 15.373 12.911 L 15.371 12.909 L 15.137 12.909 L 15.137 11.265 L 15.371 11.265 L 15.373 11.263 L 15.373 10.285 L 15.371 10.283 L 13.467 10.283 L 13.465 10.285 L 13.465 10.519 L 11.821 10.519 L 11.821 10.285 L 11.818 10.283 L 10.163 10.283 L 10.16 10.285 L 10.16 10.519 L 8.516 10.519 L 8.516 10.285 L 8.514 10.283 L 6.859 10.283 L 6.857 10.285 L 6.857 10.519 L 5.213 10.519 L 5.213 10.285 L 5.21 10.283 L 3.555 10.283 L 3.553 10.285 L 3.553 10.519 L 1.908 10.519 L 1.908 10.285 L 1.906 10.283 L 0.002 10.283 L 0 10.285 L 0 11.263 L 0.002 11.265 L 0.236 11.265 L 0.236 12.909 L 0.002 12.909 L 0 12.911 L 0 13.889 L 0.002 13.891 L 1.906 13.891 L 1.908 13.889 Z" id="front_outsideCutPath" stroke="#FF0000" stroke-width="0.001" style="stroke:#FF0000;stroke-width:0.001" vector-effect="non-scaling-stroke"/><path d="M 16.466 13.889 L 16.466 13.655 L 18.11 13.655 L 18.11 13.889 L 18.112 13.891 L 19.767 13.891 L 19.77 13.889 L 19.77 13.655 L 21.414 13.655 L 21.414 13.889 L 21.416 13.891 L 22.143 13.891 L 22.145 13.889 L 22.145 12.917 L 22.379 12.917 L 22.381 12.915 L 22.381 11.259 L 22.379 11.257 L 22.145 11.257 L 22.145 10.285 L 22.143 10.283 L 21.416 10.283 L 21.414 10.285 L 21.414 10.519 L 19.769 10.519 L 19.769 10.285 L 19.767 10.283 L 18.112 10.283 L 18.109 10.285 L 18.109 10.519 L 16.466 10.519 L 16.466 10.285 L 16.463 10.283 L 15.736 10.283 L 15.734 10.285 L 15.734 11.257 L 15.5 11.257 L 15.498 11.259 L 15.498 12.915 L 15.5 12.917 L 15.734 12.917 L 15.734 13.889 L 15.736 13.891 L 16.463 13.891 L 16.466 13.889 Z" id="left_outsideCutPath" stroke="#FF0000" stroke-width="0.001" style="stroke:#FF0000;stroke-width:0.001" vector-effect="non-scaling-stroke"/><path d="M 26.066 13.889 L 26.066 13.655 L 27.711 13.655 L 27.711 13.889 L 27.713 13.891 L 29.368 13.891 L 29.371 13.889 L 29.371 13.655 L 31.014 13.655 L 31.014 13.889 L 31.017 13.891 L 32.672 13.891 L 32.675 13.889 L 32.675 13.655 L 34.319 13.655 L 34.319 13.889 L 34.321 13.891 L 35.976 13.891 L 35.979 13.889 L 35.979 13.655 L 37.641 13.655 L 37.643 13.653 L 37.643 12.932 L 37.877 12.932 L 37.879 12.929 L 37.879 11.274 L 37.877 11.272 L 37.643 11.272 L 37.643 9.628 L 37.877 9.628 L 37.879 9.625 L 37.879 7.97 L 37.877 7.968 L 37.643 7.968 L 37.643 7.246 L 37.641 7.244 L 35.979 7.244 L 35.979 7.01 L 35.976 7.008 L 34.321 7.008 L 34.319 7.01 L 34.319 7.244 L 32.675 7.244 L 32.675 7.01 L 32.672 7.008 L 31.017 7.008 L 31.014 7.01 L 31.014 7.244 L 29.371 7.244 L 29.371 7.01 L 29.368 7.008 L 27.713 7.008 L 27.711 7.01 L 27.711 7.244 L 26.066 7.244 L 26.066 7.01 L 26.064 7.008 L 24.409 7.008 L 24.407 7.01 L 24.407 7.244 L 22.744 7.244 L 22.742 7.246 L 22.742 7.968 L 22.508 7.968 L 22.506 7.97 L 22.506 9.625 L 22.508 9.628 L 22.742 9.628 L 22.742 11.272 L 22.508 11.272 L 22.506 11.274 L 22.506 12.929 L 22.508 12.932 L 22.742 12.932 L 22.742 13.653 L 22.744 13.655 L 24.407 13.655 L 24.407 13.889 L 24.409 13.891 L 26.064 13.891 L 26.066 13.889 Z" id="top_outsideCutPath" stroke="#FF0000" stroke-width="0.001" style="stroke:#FF0000;stroke-width:0.001" vector-effect="non-scaling-stroke"/><path d="M 1.908 10.156 L 1.908 9.922 L 3.553 9.922 L 3.553 10.156 L 3.555 10.158 L 5.21 10.158 L 5.213 10.156 L 5.213 9.922 L 6.857 9.922 L 6.857 10.156 L 6.859 10.158 L 8.514 10.158 L 8.517 10.156 L 8.517 9.922 L 10.16 9.922 L 10.16 10.156 L 10.163 10.158 L 11.818 10.158 L 11.821 10.156 L 11.821 9.922 L 13.465 9.922 L 13.465 10.156 L 13.467 10.158 L 15.371 10.158 L 15.373 10.156 L 15.373 9.178 L 15.371 9.176 L 15.137 9.176 L 15.137 7.532 L 15.371 7.532 L 15.373 7.53 L 15.373 6.552 L 15.371 6.55 L 13.467 6.55 L 13.465 6.552 L 13.465 6.786 L 11.821 6.786 L 11.821 6.552 L 11.818 6.55 L 10.163 6.55 L 10.16 6.552 L 10.16 6.786 L 8.516 6.786 L 8.516 6.552 L 8.514 6.55 L 6.859 6.55 L 6.857 6.552 L 6.857 6.786 L 5.213 6.786 L 5.213 6.552 L 5.21 6.55 L 3.555 6.55 L 3.553 6.552 L 3.553 6.786 L 1.908 6.786 L 1.908 6.552 L 1.906 6.55 L 0.002 6.55 L 0 6.552 L 0 7.53 L 0.002 7.532 L 0.236 7.532 L 0.236 9.176 L 0.002 9.176 L 0 9.178 L 0 10.156 L 0.002 10.158 L 1.906 10.158 L 1.908 10.156 Z" id="back_outsideCutPath" stroke="#FF0000" stroke-width="0.001" style="stroke:#FF0000;stroke-width:0.001" vector-effect="non-scaling-stroke"/><path d="M 16.466 10.156 L 16.466 9.922 L 18.11 9.922 L 18.11 10.156 L 18.112 10.158 L 19.767 10.158 L 19.77 10.156 L 19.77 9.922 L 21.414 9.922 L 21.414 10.156 L 21.416 10.158 L 22.143 10.158 L 22.145 10.156 L 22.145 9.184 L 22.379 9.184 L 22.381 9.182 L 22.381 7.526 L 22.379 7.524 L 22.145 7.524 L 22.145 6.552 L 22.143 6.55 L 21.416 6.55 L 21.414 6.552 L 21.414 6.786 L 19.769 6.786 L 19.769 6.552 L 19.767 6.55 L 18.112 6.55 L 18.109 6.552 L 18.109 6.786 L 16.466 6.786 L 16.466 6.552 L 16.463 6.55 L 15.736 6.55 L 15.734 6.552 L 15.734 7.524 L 15.5 7.524 L 15.498 7.526 L 15.498 9.182 L 15.5 9.184 L 15.734 9.184 L 15.734 10.156 L 15.736 10.158 L 16.463 10.158 L 16.466 10.156 Z" id="right_outsideCutPath" stroke="#FF0000" stroke-width="0.001" style="stroke:#FF0000;stroke-width:0.001" vector-effect="non-scaling-stroke"/><path d="M 26.066 6.881 L 26.066 6.647 L 27.711 6.647 L 27.711 6.881 L 27.713 6.883 L 29.368 6.883 L 29.371 6.881 L 29.371 6.647 L 31.014 6.647 L 31.014 6.881 L 31.017 6.883 L 32.672 6.883 L 32.675 6.881 L 32.675 6.647 L 34.319 6.647 L 34.319 6.881 L 34.321 6.883 L 35.976 6.883 L 35.979 6.881 L 35.979 6.647 L 37.641 6.647 L 37.643 6.645 L 37.643 5.923 L 37.877 5.923 L 37.879 5.921 L 37.879 4.266 L 37.877 4.263 L 37.643 4.263 L 37.643 2.62 L 37.877 2.62 L 37.879 2.617 L 37.879 0.962 L 37.877 0.96 L 37.643 0.96 L 37.643 0.238 L 37.641 0.236 L 35.979 0.236 L 35.979 0.002 L 35.976 0 L 34.321 0 L 34.319 0.002 L 34.319 0.236 L 32.675 0.236 L 32.675 0.002 L 32.672 0 L 31.017 0 L 31.014 0.002 L 31.014 0.236 L 29.371 0.236 L 29.371 0.002 L 29.368 0 L 27.713 0 L 27.711 0.002 L 27.711 0.236 L 26.066 0.236 L 26.066 0.002 L 26.064 0 L 24.409 0 L 24.407 0.002 L 24.407 0.236 L 22.744 0.236 L 22.742 0.238 L 22.742 0.96 L 22.508 0.96 L 22.506 0.962 L 22.506 2.617 L 22.508 2.62 L 22.742 2.62 L 22.742 4.263 L 22.508 4.263 L 22.506 4.266 L 22.506 5.921 L 22.508 5.923 L 22.742 5.923 L 22.742 6.645 L 22.744 6.647 L 24.407 6.647 L 24.407 6.881 L 24.409 6.883 L 26.064 6.883 L 26.066 6.881 Z" id="bottom_outsideCutPath" stroke="#FF0000" stroke-width="0.001" style="stroke:#FF0000;stroke-width:0.001" vector-effect="non-scaling-stroke"/></g></svg>